<svg xmlns="http://www.w3.org/2000/svg" xmlns:xlink="http://www.w3.org/1999/xlink" viewBox="0 0 71 67" fill="#fff" fill-rule="evenodd" stroke="#000" stroke-linecap="round" stroke-linejoin="round"><use xlink:href="#A" x=".5" y=".5"/><symbol id="A" overflow="visible"><g stroke="none" fill-rule="nonzero"><path d="M20.254 1.872c-.875 2.533-1.722 3.827-3.034 4.488-1.667.853-3.28.716-5.822-.468L9.266 4.873 7.107 7.048C5.904 8.259 4.92 9.388 4.92 9.553c0 .193.437 1.239.957 2.34 1.093 2.313 1.203 3.662.437 5.368-.683 1.487-1.558 2.12-4.155 3.056L0 21.089v3.304 3.304l2.159.771c2.597.936 3.471 1.569 4.155 3.056.765 1.707.656 3.056-.437 5.368-.519 1.101-.957 2.147-.957 2.34 0 .165.984 1.294 2.187 2.505l2.159 2.175 2.132-1.019c2.542-1.184 4.155-1.321 5.822-.468 1.312.661 2.159 1.955 3.034 4.488l.629 1.872 3.253-.083 3.253-.083.765-2.147c1.613-4.57 4.155-5.644 8.555-3.579l2.132 1.019 2.323-2.368 2.351-2.34-.957-1.9c-1.203-2.395-1.394-3.359-1.011-4.79.492-1.872 1.859-3.138 4.373-4.019l2.187-.743v-3.359-3.359l-2.187-.743c-2.515-.881-3.881-2.147-4.373-4.019-.383-1.432-.191-2.395 1.011-4.79l.957-1.9-2.351-2.34-2.323-2.368-2.132 1.019c-4.401 2.065-6.943.991-8.555-3.579L27.388.165 24.135.083 20.882 0l-.629 1.872zm7.817 14.674c1.722.853 3.061 2.202 4.073 4.13.738 1.377.738 6.057 0 7.433-1.039 1.955-2.351 3.276-4.182 4.185-3.608 1.79-7.489 1.046-10.25-1.927-3.089-3.331-3.171-8.507-.137-11.811 2.897-3.166 6.697-3.882 10.496-2.01z" fill="#2196f3"/><path d="M54.83 33.726c-.355.826-.902 1.624-1.203 1.789-.847.468-2.132.358-3.307-.22l-1.039-.551-1.175 1.211-1.175 1.211.437 1.184c.957 2.505.328 3.964-1.968 4.653l-1.148.33.082 1.789.082 1.79 1.093.385c1.64.551 2.405 1.569 2.241 2.946-.055.633-.273 1.542-.492 2.01-.355.881-.328.936.711 2.01.574.606 1.203 1.101 1.394 1.101.164 0 .847-.248 1.503-.523 2.023-.881 3.389-.22 4.155 2.037l.383 1.101 1.667.083 1.695.083.683-1.542c.519-1.211.875-1.624 1.613-1.927.875-.385 1.093-.358 2.515.165l1.531.578 1.175-1.156 1.203-1.184-.547-1.046c-1.093-2.175-.492-3.799 1.695-4.653l1.203-.496.082-1.762.082-1.789-1.148-.33c-2.323-.716-3.034-2.45-1.913-4.68l.547-1.046-1.285-1.266-1.285-1.266-.957.523c-2.159 1.184-3.963.44-4.674-1.9l-.328-1.129h-1.749-1.722l-.656 1.487zm4.401 7.213c2.351 1.129 3.253 4.212 1.886 6.552-1.64 2.836-5.275 3.139-7.462.633-3.28-3.772 1.039-9.333 5.576-7.186z" fill="#86c5f9"/><path d="M35.151 48.206c-.191 1.101-.847 1.321-1.64.578-.738-.688-.929-.716-1.749-.083-.519.413-.574.606-.355 1.184.383 1.046 0 1.459-1.175 1.266-.902-.138-1.039-.083-1.421.688-.41.771-.383.853.164 1.487.765.798.547 1.432-.547 1.679-.765.138-.847.248-.765 1.129.082.853.191 1.019.984 1.211 1.039.275 1.148.881.301 1.762-.519.578-.547.661-.137 1.432s.492.826 1.312.578c1.148-.33 1.695.248 1.285 1.349-.273.716-.219.798.929 1.459.41.22.656.165 1.121-.275.847-.798 1.23-.716 1.695.385.328.798.519.964 1.203.964s.875-.165 1.203-.964c.465-1.101.847-1.184 1.695-.385.574.523.656.551 1.421.138.738-.385.82-.523.683-1.487-.164-1.266.082-1.514 1.257-1.156.793.22.875.165 1.285-.606.41-.798.383-.853-.191-1.487-.738-.798-.492-1.514.601-1.762.519-.138.683-.358.738-1.156.082-.881.027-.991-.765-1.129-1.121-.248-1.312-.881-.519-1.734.601-.661.601-.716.191-1.432-.41-.661-.601-.743-1.585-.661l-1.148.11.109-1.156c.082-.991 0-1.184-.656-1.597-.711-.413-.765-.413-1.421.193-.847.798-1.476.606-1.695-.523-.164-.743-.273-.826-1.203-.826s-1.039.083-1.203.826zm2.487 4.818c.328.083.929.551 1.312.991.82.991.957 3.056.246 4.047-1.339 1.955-4.647 1.845-5.713-.22-.984-1.927-.082-4.377 1.859-4.928.875-.248 1.121-.22 2.296.11z" fill="#55aef6"/></g></symbol></svg>